<svg width="48" height="48" viewBox="0 0 48 48" fill="none" xmlns="http://www.w3.org/2000/svg">
<g clip-path="url(#clip0_688_179)">
<path d="M0 16.1C0 10.4051 0 7.55764 1.12587 5.39026C2.07462 3.56382 3.56382 2.07462 5.39026 1.12587C7.55764 0 10.4051 0 16.1 0H31.9C37.5949 0 40.4424 0 42.6097 1.12587C44.4362 2.07462 45.9254 3.56382 46.8741 5.39026C48 7.55764 48 10.4051 48 16.1V31.9C48 37.5949 48 40.4424 46.8741 42.6097C45.9254 44.4362 44.4362 45.9254 42.6097 46.8741C40.4424 48 37.5949 48 31.9 48H16.1C10.4051 48 7.55764 48 5.39026 46.8741C3.56382 45.9254 2.07462 44.4362 1.12587 42.6097C0 40.4424 0 37.5949 0 31.9V16.1Z" fill="url(#paint0_linear_688_179)"/>
<path fill-rule="evenodd" clip-rule="evenodd" d="M44.1235 27.5344C43.9554 30.5401 41.4468 32.878 38.437 32.8364H24.7684C24.1423 32.8299 23.637 32.3221 23.6337 31.6968V16.9793C23.6141 16.4625 23.9137 15.9866 24.3888 15.7809C24.3888 15.7809 25.646 14.9091 28.2941 14.9091C29.9121 14.9074 31.4999 15.3433 32.8901 16.1719C35.0827 17.4617 36.6345 19.6119 37.1692 22.0984C37.6411 21.9654 38.1292 21.8993 38.619 21.9009C40.1047 21.8919 41.5292 22.4862 42.5676 23.5491C43.606 24.6111 44.1676 26.0495 44.1243 27.5344H44.1235ZM21.9276 17.9099C22.3398 22.9017 22.6394 27.4544 21.9276 32.4299C21.9031 32.6544 21.7129 32.825 21.4868 32.825C21.2598 32.825 21.0705 32.6544 21.0452 32.4299C20.3815 27.4968 20.6705 22.8584 21.0452 17.9099C21.0264 17.7409 21.1064 17.5752 21.2509 17.4854C21.3945 17.3956 21.5774 17.3956 21.7227 17.4854C21.8664 17.5752 21.9464 17.7409 21.9276 17.9099ZM19.1619 32.4348C19.1276 32.6625 18.9317 32.8299 18.7023 32.8299C18.4721 32.8299 18.2762 32.6625 18.2419 32.4348C17.7472 28.1784 17.7472 23.8789 18.2419 19.6225C18.2672 19.3858 18.4672 19.2062 18.7047 19.2062C18.9423 19.2062 19.1415 19.3858 19.1676 19.6225C19.717 23.8756 19.7145 28.1817 19.1619 32.4348ZM16.3905 19.1891C16.8394 23.7629 17.0435 27.8609 16.3856 32.4242C16.3856 32.6691 16.1864 32.8682 15.9415 32.8682C15.6966 32.8682 15.4974 32.6691 15.4974 32.4242C14.8607 27.9197 15.0745 23.7042 15.4974 19.1891C15.5219 18.9605 15.7145 18.7891 15.9439 18.7891C16.1733 18.7891 16.366 18.9605 16.3905 19.1891ZM13.6149 32.4405C13.5888 32.6707 13.3945 32.8454 13.1619 32.8454C12.9301 32.8454 12.7349 32.6707 12.7105 32.4405C12.1994 28.4691 12.1994 24.4487 12.7105 20.478C12.7105 20.2242 12.9162 20.0185 13.1701 20.0185C13.4239 20.0185 13.6305 20.2242 13.6305 20.478C14.1733 24.447 14.1676 28.4723 13.6141 32.4405H13.6149ZM10.8427 23.4691C11.5439 26.5711 11.228 29.3107 10.8166 32.4723C10.7831 32.6829 10.6011 32.838 10.388 32.838C10.1758 32.838 9.99373 32.6829 9.96026 32.4723C9.58556 29.354 9.27536 26.5499 9.93332 23.4682C9.93332 23.2176 10.1374 23.0136 10.388 23.0136C10.6394 23.0136 10.8427 23.2176 10.8427 23.4691ZM8.07699 22.998C8.71944 26.176 8.51046 28.8666 8.06066 32.0552C8.0076 32.5262 7.20025 32.5311 7.15699 32.0552C6.75046 28.9148 6.55781 26.1433 7.14066 22.998C7.16679 22.7589 7.36923 22.5776 7.60923 22.5776C7.85005 22.5776 8.05168 22.7589 8.07699 22.998ZM5.28515 24.5384C5.95862 26.6462 5.72842 28.3589 5.25821 30.5197C5.23372 30.7417 5.04597 30.9099 4.82229 30.9099C4.59862 30.9099 4.41087 30.7417 4.38556 30.5197C3.97903 28.4013 3.81413 26.6519 4.34883 24.5384C4.37332 24.2993 4.57577 24.118 4.81658 24.118C5.0574 24.118 5.25903 24.2993 5.28434 24.5384H5.28515Z" fill="white"/>
</g>
<defs>
<linearGradient id="paint0_linear_688_179" x1="24" y1="0" x2="24" y2="48" gradientUnits="userSpaceOnUse">
<stop stop-color="#FF7700"/>
<stop offset="1" stop-color="#FF3200"/>
</linearGradient>
<clipPath id="clip0_688_179">
<rect width="48" height="48" fill="white"/>
</clipPath>
</defs>
</svg>
